# xmcd CD database file
#
# Track frame offsets:
#	150
#	26244
#	44810
#	64972
#	91452
#	117522
#	136092
#	156267
#
# Disc length: 2427 seconds
#
# Revision: 0
# Processed by: cddbd v1.5.1PL2 Copyright (c) Steve Scherf et al.
# Submitted via: CDex 1.51
#
DISCID=75097908
DTITLE=Lazarin - Through the vortex with Lazarin
DYEAR=1900
DGENRE=New Age
TTITLE0=Pista 01
TTITLE1=Pista 02
TTITLE2=Pista 03
TTITLE3=Pista 04
TTITLE4=Pista 05
TTITLE5=Pista 06
TTITLE6=Pista 07
TTITLE7=Pista 08
EXTD=
EXTT0=
EXTT1=
EXTT2=
EXTT3=
EXTT4=
EXTT5=
EXTT6=
EXTT7=
PLAYORDER=
